<?xml version="1.0" encoding="utf-8"?>
<!-- Generator: Adobe Illustrator 25.0.1, SVG Export Plug-In . SVG Version: 6.00 Build 0)  -->
<svg version="1.1" id="Capa_1" xmlns="http://www.w3.org/2000/svg" xmlns:xlink="http://www.w3.org/1999/xlink" x="0px" y="0px"
	 viewBox="0 0 75 227" style="enable-background:new 0 0 75 227;" xml:space="preserve">
<g>
	<path d="M17.6,14.7c0.5-1.3,1-2.3,1.7-3.2c0.6-0.8,1.1-1.4,1.3-1.8C20.9,9.4,21,9,21,8.7c0-0.8-0.6-1.2-1.9-1.4L17.4,7V5.3
		l17.4-0.3v1.8c-2.8,0.5-5.4,1.4-7.9,2.6c-2.5,1.2-4.4,2.7-5.9,4.5c-1.5,1.7-2.3,3.6-2.3,5.6c0,2.9,0.6,4.9,1.9,5.9
		c1.3,1.1,2.7,1.6,4.3,1.6c1,0,1.8-0.3,2.6-1c0.8-0.7,1.5-1.7,2.4-2.9l7.6-11.8C38.6,9.5,40,8,41.6,6.8c1.6-1.2,3.6-1.8,5.9-1.8
		c3.6,0,6.2,1,7.9,3.1c1.7,2.1,2.6,4.6,2.6,7.7c0,2.6-0.9,5.2-2.7,7.8c-0.7,0.8-1,1.5-1,2c0,0.7,0.4,1.1,1.3,1.2l1.5,0.3v1.8
		l-14.3,0.5v-1.8c2.5-0.7,4.8-1.7,6.9-2.9c2.1-1.2,3.7-2.7,4.9-4.3c1.2-1.6,1.8-3.3,1.8-5.1c0-1.9-0.4-3.4-1.2-4.3
		c-0.8-0.9-1.9-1.4-3.5-1.4c-2.1,0-4.2,1.6-6.3,4.9l-7.6,11.8c-1,1.5-2.3,2.7-4.1,3.6c-1.7,0.9-3.5,1.3-5.4,1.3
		c-1.9,0-3.7-0.5-5.4-1.4c-1.7-0.9-3.1-2.3-4.2-4.1c-1.1-1.8-1.6-4.1-1.6-6.8C16.9,17.5,17.2,16,17.6,14.7z"/>
	<path d="M17.6,43.8c0.2-0.7,0.5-1.3,0.9-1.9c0.7-0.9,1.6-1.6,2.7-2.2c1.2-0.5,2.4-0.8,3.6-0.8h16.9c0.3,0,0.6-0.1,0.7-0.2
		c0.1-0.1,0.2-0.4,0.2-0.7v-2.6H44v9.9H23.3c-2.8,0-4.2,0.8-4.2,2.5c0,0.8,0.5,1.6,1.5,2.4c1,0.8,2.4,1.5,4.1,2.1
		c1.7,0.6,3.5,0.9,5.4,0.9h11.8c0.3,0,0.6-0.1,0.7-0.2c0.1-0.1,0.2-0.4,0.2-0.7v-2.6H44v9.9H20.1c-0.3,0-0.6,0.1-0.7,0.2
		c-0.1,0.1-0.2,0.4-0.2,0.7v2.1h-1.3v-9.3h4.9l0.1-0.3c-1.7-0.7-3.1-1.7-4.1-2.8c-1-1.2-1.5-2.5-1.5-4
		C17.3,45.2,17.4,44.4,17.6,43.8z"/>
	<path d="M28.2,67.5v1.2l-4.3,2.5c-3.5,2-5.2,4.5-5.2,7.5c0,1.4,0.3,2.4,1,3c0.7,0.7,1.4,1,2.3,1c0.7,0,1.4-0.2,1.9-0.6
		c0.5-0.4,1.1-1,1.6-2s1.3-2.4,2.3-4.3c1.1-2.3,2.4-4.3,3.8-5.9c1.4-1.6,3.3-2.4,5.6-2.4c2.3,0,4.1,0.7,5.4,2.1c1.4,1.4,2,3.2,2,5.2
		c0,1.7-0.6,3.6-1.9,5.5c-0.4,0.7-0.7,1.2-0.7,1.6c0,0.4,0.3,0.7,0.9,0.9l1.1,0.3v1h-8.8V83l2.1-1c2-1,3.5-2.1,4.5-3.4
		c1-1.3,1.5-2.6,1.5-3.9c0-1-0.2-1.8-0.7-2.4c-0.5-0.6-1.2-1-2.3-1c-2.2,0-4.2,1.9-6,5.8c-1.1,2.4-2.1,4.2-3,5.5
		c-0.9,1.3-1.8,2.2-2.9,2.8c-1,0.6-2.3,0.9-3.8,0.9c-2.3,0-4.1-0.7-5.4-2.2c-1.3-1.4-2-3.3-2-5.4c0-1.8,0.6-3.7,1.8-5.7
		c0.6-0.9,0.9-1.5,0.9-2c0-0.5-0.1-0.9-0.4-1.3c-0.3-0.4-0.6-0.6-1.1-0.8l-1.2-0.4v-1H28.2z"/>
	<path d="M19.1,96.2c1.2-1.8,2.9-3.2,5-4.2c2.1-1,4.4-1.5,6.9-1.5c2.5,0,4.8,0.5,6.9,1.5c2.1,1,3.7,2.3,5,4.1c1.2,1.8,1.8,3.8,1.8,6
		c0,1.8-0.4,3.2-1.1,4.4c-0.7,1.2-1.7,2.1-2.8,2.7c-1.1,0.6-2.3,0.9-3.5,0.9c-1.3,0-2.5-0.4-3.4-1.2c-1-0.8-1.5-1.8-1.5-2.9
		c0-0.8,0.2-1.5,0.7-2.1c0.5-0.5,1.2-0.8,2-0.8c1,0,2,0.6,2.9,1.8c0.7,0.9,1.5,1.3,2.3,1.3c0.8,0,1.5-0.3,2.1-0.9
		c0.6-0.6,1-1.5,1-2.7c0-1.7-1.1-3-3.3-3.8c-2.2-0.8-5.2-1.2-9.1-1.2c-1.9,0-3.5,0-4.5,0.1c-1.1,0.1-2.1,0.2-3.1,0.5
		c-1.4,0.3-2.4,1-3.2,1.9c-0.8,0.9-1.2,2-1.2,3.3c0,1.8,0.8,3.2,2.4,4.3s3.4,1.8,5.6,2v1.4c-2.5-0.2-4.8-1-6.7-2.5
		c-1.9-1.4-2.9-3.6-2.9-6.4C17.3,100,17.9,98,19.1,96.2z"/>
	<path d="M19.2,115.9v2.1c0,0.3,0.1,0.6,0.2,0.7c0.1,0.1,0.4,0.2,0.7,0.2h21.7c0.3,0,0.6-0.1,0.7-0.2c0.1-0.1,0.2-0.4,0.2-0.7v-2.1
		H44v9.3h-5.4l-0.1,0.3c1.7,0.6,3.1,1.4,4.3,2.5c1.2,1.1,1.8,2.3,1.8,3.6c0,1.3-0.5,2.4-1.4,3.2c-1,0.8-2.2,1.3-3.6,1.3
		c-1.4,0-2.5-0.4-3.5-1.2c-1-0.8-1.5-1.7-1.5-2.9c0-1,0.3-1.8,0.9-2.5s1.3-1,2.2-1s1.8,0.4,2.9,1.3c0.6,0.5,1,0.8,1.3,0.8
		c0.4,0,0.5-0.2,0.5-0.6c0-0.7-0.5-1.5-1.6-2.2c-1.1-0.8-2.5-1.4-4.2-1.8c-1.7-0.5-3.6-0.7-5.5-0.7H20.1c-0.3,0-0.6,0.1-0.7,0.2
		c-0.1,0.1-0.2,0.4-0.2,0.7v1.8h-1.3v-12H19.2z"/>
	<path d="M19.2,139.8v2.1c0,0.3,0.1,0.6,0.2,0.7c0.1,0.1,0.4,0.2,0.7,0.2h21.7c0.3,0,0.6-0.1,0.7-0.2c0.1-0.1,0.2-0.4,0.2-0.7v-2.1
		H44v9.3H20.1c-0.3,0-0.6,0.1-0.7,0.2c-0.1,0.1-0.2,0.4-0.2,0.7v2.1h-1.3v-12.3H19.2z M50.8,142.8c0.8-0.8,1.8-1.2,2.9-1.2
		c1.2,0,2.1,0.4,2.9,1.2c0.8,0.8,1.2,1.8,1.2,2.9c0,1.2-0.4,2.1-1.2,2.9c-0.8,0.8-1.7,1.2-2.9,1.2c-1.1,0-2.1-0.4-2.9-1.2
		c-0.8-0.8-1.2-1.7-1.2-2.9C49.6,144.6,50,143.6,50.8,142.8z"/>
	<path d="M18.3,167c0.7-0.9,1.5-1.7,2.6-2.4c0.7-0.4,1.2-0.8,1.4-1.1c0.3-0.3,0.4-0.6,0.4-1c0-0.6-0.5-1.2-1.5-1.6l-3.2-1.5v-0.9
		h36.9c0.3,0,0.6-0.1,0.7-0.2c0.1-0.1,0.2-0.4,0.2-0.7v-3.1h1.3v10.3H40.9l-0.1,0.3c1.2,0.6,2.2,1.3,2.9,2.3c0.7,0.9,1,2,1,3.1
		c0,1.9-0.7,3.6-2,5.1c-1.3,1.5-3,2.6-5.1,3.4c-2.1,0.8-4.3,1.2-6.7,1.2c-2.3,0-4.5-0.4-6.6-1.3c-2.1-0.8-3.8-2-5.1-3.5
		c-1.3-1.5-2-3.2-2-5.1C17.3,169,17.6,167.9,18.3,167z M31,173.2c8,0,11.9-1.2,11.9-3.6c0-0.7-0.4-1.4-1.3-2.1
		c-0.9-0.7-2.2-1.4-4.1-1.9c-1.8-0.5-4.1-0.8-6.7-0.8c-2.2,0-4.1,0.2-5.9,0.7s-3.2,1-4.3,1.7c-1,0.7-1.6,1.5-1.6,2.3
		C19,172,23,173.2,31,173.2z"/>
	<path d="M19.2,185.1v2.1c0,0.3,0.1,0.6,0.2,0.7c0.1,0.1,0.4,0.2,0.7,0.2h21.7c0.3,0,0.6-0.1,0.7-0.2c0.1-0.1,0.2-0.4,0.2-0.7v-2.1
		H44v9.3H20.1c-0.3,0-0.6,0.1-0.7,0.2c-0.1,0.1-0.2,0.4-0.2,0.7v2.1h-1.3v-12.3H19.2z M50.8,188.1c0.8-0.8,1.8-1.2,2.9-1.2
		c1.2,0,2.1,0.4,2.9,1.2c0.8,0.8,1.2,1.8,1.2,2.9c0,1.2-0.4,2.1-1.2,2.9c-0.8,0.8-1.7,1.2-2.9,1.2c-1.1,0-2.1-0.4-2.9-1.2
		c-0.8-0.8-1.2-1.7-1.2-2.9C49.6,189.9,50,188.9,50.8,188.1z"/>
	<path d="M19.2,201.3v2.1c0,0.3,0.1,0.6,0.2,0.7c0.1,0.1,0.4,0.2,0.7,0.2h21.7c0.3,0,0.6-0.1,0.7-0.2c0.1-0.1,0.2-0.4,0.2-0.7v-2.1
		H44v9.3h-5.4l-0.1,0.3c1.7,0.6,3.1,1.4,4.3,2.5c1.2,1.1,1.8,2.3,1.8,3.6c0,1.3-0.5,2.4-1.4,3.2c-1,0.8-2.2,1.3-3.6,1.3
		c-1.4,0-2.5-0.4-3.5-1.2c-1-0.8-1.5-1.7-1.5-2.9c0-1,0.3-1.8,0.9-2.5s1.3-1,2.2-1s1.8,0.4,2.9,1.3c0.6,0.5,1,0.8,1.3,0.8
		c0.4,0,0.5-0.2,0.5-0.6c0-0.7-0.5-1.5-1.6-2.2c-1.1-0.8-2.5-1.4-4.2-1.8c-1.7-0.5-3.6-0.7-5.5-0.7H20.1c-0.3,0-0.6,0.1-0.7,0.2
		c-0.1,0.1-0.2,0.4-0.2,0.7v1.8h-1.3v-12H19.2z"/>
</g>
</svg>
